<svg xmlns="http://www.w3.org/2000/svg" viewBox="0 0 1000 189.05">
  <path fill="#F26E21" d="M999.65,94.53C999.65,146.7,957.48,189,905.31,189H94.34C42.17,189,0,146.7,0,94.53S42.17,0,94.34,0H905.31c52.17,0,94.34,42.36,94.34,94.53Z"/>
  <path fill="#FFF" d="M367.92,37.81V151.24h-39.8V37.81Zm299.33,75.11c0,23.7-17.14,40.84-40.84,40.84s-40.84-17.14-40.84-40.84,17.14-40.84,40.84-40.84,40.84,17.14,40.84,40.84Zm-40.84-24.74c-13.7,0-24.74,11.04-24.74,24.74s11.04,24.74,24.74,24.74,24.74-11.04,24.74-24.74-11.04-24.74-24.74-24.74Zm-117.48,24.74c0,23.7-17.14,40.84-40.84,40.84s-40.84-17.14-40.84-40.84,17.14-40.84,40.84-40.84,40.84,17.14,40.84,40.84Zm-40.84-24.74c-13.7,0-24.74,11.04-24.74,24.74s11.04,24.74,24.74,24.74,24.74-11.04,24.74-24.74-11.04-24.74-24.74-24.74Z"/>
</svg>