<svg xmlns="http://www.w3.org/2000/svg" viewBox="0 0 1000 324.68">
  <path fill="#1434CB" d="M651.19,0,554.86,324.68h-82L576.66,0ZM823,160.51c32.79-89.11,47.32-129.46,47.32-129.46h75.92s6.88,31.81,28,129.46c21.12,97.54,25.79,119.29,25.79,119.29H927.5s-4.67-21.75-19.2-92.87H822.47c-10.11,47.32-16.44,92.87-16.44,92.87H734.91s29.69-142.9,88.07-319.4h0ZM888.27,157c-7.33-35.93-11.44-57-11.44-57s-3.67,18.75-11.89,57Zm-530.35,3.44c-35.93,0-56.6-17.41-56.6-17.41l9.22-61.71s20.67,17.41,52.48,17.41c17.86,0,31.37-7.33,31.37-19.66,0-35.48-93.53-33.23-93.53-109.8C300.86,15.42,335.2,0,379.74,0c30.37,0,54.82,8.77,54.82,8.77L425.73,69s-20.23-9.22-44.57-9.22c-23.9,0-34,10.11-34,17.41,0,31.37,94.42,31.81,94.42,109.8.45,58.93-49.32,73.6-84.25,73.6l.6-.11ZM443.59,0l-31.81,156.84c-1.78,8.77-2.67,16.1-2.67,21.67,0,19.66,11.44,28,30.37,28,16.54,0,29.42-3.67,29.42-3.67l5.89-39.15s-7.77,1.78-14.21,1.78c-11,0-14.66-5.89-14.66-13.66a113.41,113.41,0,0,1,2.22-15.77L479.52,0Z"/>
</svg>